<svg width="512" height="512" xmlns="http://www.w3.org/2000/svg"><path fill="none" d="M-1-1h514v514H-1z"/><g><path fill="#0084C2" d="M137.3 201.5c-4.4-3.3-8.9-5-13.3-5h-20v119.4h20c4.4 0 8.9-1.7 13.3-5s6.7-8.3 6.7-14.9v-79.6c-.1-6.6-2.3-11.6-6.7-14.9zM461.8 0H50.2C22.5 0 .1 22.4 0 50.1V462c.1 27.6 22.5 50 50.2 50h411.7c27.7 0 50.1-22.4 50.2-50.1V50.1C511.9 22.4 489.5 0 461.8 0zM176.2 296.2c0 21.5-13.3 54.1-55.3 54h-53V161.1H122c40.5 0 54.1 32.5 54.1 54l.1 81.1zm115.1-101.3h-60.9v43.9h37.2v33.8h-37.2v43.9h60.9v33.8h-71.1c-12.8.3-23.4-9.7-23.7-22.5v-143c-.3-12.7 9.8-23.3 22.5-23.6h72.2l.1 33.7zm118.4 131.8c-15.1 35.1-42.1 28.1-54.2 0l-44-165.5h37.2l34 130 33.8-130h37.2l-44 165.5z"/></g></svg>