<svg xmlns="http://www.w3.org/2000/svg" width="876" height="876" fill="#D3D9DD"><circle cx="438" cy="438" r="246"/><path d="M420.5 163h35c11.046 0 20-8.954 20-20V20c0-11.046-8.954-20-20-20h-35c-11.046 0-20 8.954-20 20v123c0 11.046 8.954 20 20 20zM713 420.5v35c0 11.046 8.954 20 20 20h123c11.046 0 20-8.954 20-20v-35c0-11.046-8.954-20-20-20H733c-11.046 0-20 8.954-20 20zM455.5 876c11.046 0 20-8.954 20-20V733c0-11.046-8.954-20-20-20h-35c-11.046 0-20 8.954-20 20v123c0 11.046 8.954 20 20 20h35zM20 475.5h123c11.046 0 20-8.954 20-20v-35c0-11.046-8.954-20-20-20H20c-11.046 0-20 8.954-20 20v35c0 11.046 8.954 20 20 20zm624.829-219.58c7.811 7.81 20.474 7.811 28.284 0l86.975-86.974c7.811-7.812 7.811-20.474 0-28.284l-24.749-24.749c-7.811-7.811-20.474-7.811-28.284 0l-86.975 86.974c-7.812 7.81-7.812 20.474 0 28.284l24.749 24.749zm90.509 504.167l24.749-24.749c7.811-7.81 7.811-20.474 0-28.284l-86.975-86.974c-7.812-7.811-20.475-7.811-28.284 0l-24.749 24.749c-7.812 7.811-7.812 20.474 0 28.284l86.975 86.974c7.811 7.811 20.474 7.811 28.284 0zm-566.392 0l86.975-86.974c7.812-7.811 7.812-20.475 0-28.284l-24.749-24.749c-7.811-7.811-20.474-7.811-28.284 0l-86.975 86.974c-7.811 7.812-7.811 20.475 0 28.284l24.749 24.749c7.81 7.811 20.473 7.811 28.284 0zm33.941-504.167c7.811 7.811 20.474 7.81 28.284 0l24.749-24.749c7.812-7.81 7.812-20.474 0-28.284l-86.975-86.974c-7.811-7.811-20.474-7.811-28.284 0l-24.749 24.749c-7.811 7.81-7.811 20.474 0 28.284l86.975 86.974z"/></svg>